name Walk10.mot
datacolumns 19
datarows 17
range 1.96000000 2.04000000
endheader

                time	   L_ground_force_vx	   L_ground_force_vy	   L_ground_force_vz	   L_ground_force_px	   L_ground_force_py	   L_ground_force_pz	   R_ground_force_vx	   R_ground_force_vy	   R_ground_force_vz	   R_ground_force_px	   R_ground_force_py	   R_ground_force_pz	   L_ground_torque_x	   L_ground_torque_y	   L_ground_torque_z	   R_ground_torque_x	   R_ground_torque_y	   R_ground_torque_z	
          1.96000000	          0.00000000	          0.00000000	          0.00000000	         -0.00000000	          0.00000000	          0.00000000	         10.34939374	         35.80414307	         -5.51151715	          0.24532767	          0.00000000	          0.04116964	          0.00000000	          0.00000000	          0.00000000	          0.00000000	         -2.70304441	          0.00000000	
          1.96500000	          0.00000000	          0.00000000	          0.00000000	         -0.00000000	          0.00000000	          0.00000000	          5.72496482	         17.99978429	         -4.11899560	          0.19478583	          0.00000000	          0.03234722	          0.00000000	          0.00000000	          0.00000000	          0.00000000	         -1.66709063	          0.00000000	
          1.97000000	          0.00000000	          0.00000000	          0.00000000	         -0.00000000	          0.00000000	          0.00000000	          2.30663172	          5.15863685	         -2.90023639	          0.14696946	          0.00000000	          0.02413135	          0.00000000	          0.00000000	          0.00000000	          0.00000000	         -0.87090734	          0.00000000	
          1.97500000	          0.00000000	          0.00000000	          0.00000000	         -0.00000000	          0.00000000	          0.00000000	         -0.06790576	         -3.48412805	         -1.88929608	          0.10468224	          0.00000000	          0.01695417	          0.00000000	          0.00000000	          0.00000000	          0.00000000	         -0.29145217	          0.00000000	
          1.98000000	          0.00000000	          0.00000000	          0.00000000	         -0.00000000	          0.00000000	          0.00000000	         -1.58528012	         -8.75101335	         -1.09157917	          0.06928517	          0.00000000	          0.01101072	          0.00000000	          0.00000000	          0.00000000	          0.00000000	          0.10319154	          0.00000000	
          1.98500000	          0.00000000	          0.00000000	          0.00000000	         -0.00000000	          0.00000000	          0.00000000	         -2.43296642	        -11.43646551	         -0.49368806	          0.04110609	          0.00000000	          0.00632848	          0.00000000	          0.00000000	          0.00000000	          0.00000000	          0.34810771	          0.00000000	
          1.99000000	          0.00000000	          0.00000000	          0.00000000	         -0.00000000	          0.00000000	          0.00000000	         -2.78415299	        -12.25410783	         -0.07122731	          0.01978440	          0.00000000	          0.00282535	          0.00000000	          0.00000000	          0.00000000	          0.00000000	          0.47763659	          0.00000000	
          1.99500000	          0.00000000	          0.00000000	          0.00000000	         -0.00000000	          0.00000000	          0.00000000	         -2.78916930	        -11.80929424	          0.20532180	          0.00454651	          0.00000000	          0.00035540	          0.00000000	          0.00000000	          0.00000000	          0.00000000	          0.52292567	          0.00000000	
          2.00000000	         -0.00000000	          0.00000000	          0.00000000	         -0.00000000	          0.00000000	          0.00000000	         -2.57179659	        -10.59007152	          0.36642892	         -0.00558483	          0.00000000	         -0.00125663	          0.00000000	          0.00000000	          0.00000000	          0.00000000	          0.51061159	          0.00000000	
          2.00500000	         -0.00000000	         -0.00000000	          0.00000000	         -0.00000000	          0.00000000	          0.00000000	         -2.22900167	         -8.97066100	          0.44076369	         -0.01164017	          0.00000000	         -0.00219101	          0.00000000	         -0.00000000	          0.00000000	          0.00000000	          0.46233160	          0.00000000	
          2.01000000	         -0.00000000	         -0.00000000	         -0.00000000	         -0.00000000	          0.00000000	          0.00000000	         -1.83288685	         -7.22269358	          0.45357407	         -0.01460275	          0.00000000	         -0.00261693	          0.00000000	         -0.00000000	          0.00000000	          0.00000000	          0.39480574	          0.00000000	
          2.01500000	         -0.00000000	         -0.00000000	         -0.00000000	         -0.00000000	          0.00000000	          0.00000000	         -1.43390690	         -5.53052821	          0.42591689	         -0.01534769	          0.00000000	         -0.00268310	          0.00000000	         -0.00000000	          0.00000000	          0.00000000	          0.32027835	          0.00000000	
          2.02000000	         -0.00000000	         -0.00000000	         -0.00000000	         -0.00000000	          0.00000000	          0.00000000	         -1.06464409	         -4.00797743	          0.37449600	         -0.01461159	          0.00000000	         -0.00251333	          0.00000000	         -0.00000000	          0.00000000	          0.00000000	          0.24715524	          0.00000000	
          2.02500000	         -0.00000000	         -0.00000000	         -0.00000000	          0.00000000	          0.00000000	         -0.00000000	         -0.74364253	         -2.71461255	          0.31190267	         -0.01298394	          0.00000000	         -0.00220568	          0.00000000	         -0.00000000	          0.00000000	          0.00000000	          0.18071581	          0.00000000	
          2.03000000	         -0.00000000	         -0.00000000	         -0.00000000	          0.00000000	          0.00000000	         -0.00000000	         -0.47897731	         -1.67050968	          0.24709505	         -0.01091329	          0.00000000	         -0.00183395	          0.00000000	         -0.00000000	          0.00000000	          0.00000000	          0.12381706	          0.00000000	
          2.03500000	         -0.00000000	         -0.00000000	         -0.00000000	          0.00000000	          0.00000000	         -0.00000000	         -0.27137132	         -0.86882962	          0.18599295	         -0.00872231	          0.00000000	         -0.00145053	          0.00000000	         -0.00000000	          0.00000000	          0.00000000	          0.07753656	          0.00000000	
          2.04000000	         -0.00000000	         -0.00000000	         -0.00000000	          0.00000000	          0.00000000	         -0.00000000	         -0.11677543	         -0.28601381	          0.13209957	         -0.00662745	          0.00000000	         -0.00108993	          0.00000000	         -0.00000000	          0.00000000	          0.00000000	          0.04172557	          0.00000000	
